{
 "asset": {
  "version": "2.0",
  "generator": "omnicpp mannequin generator"
 },
 "scene": 0,
 "scenes": [
  {
   "nodes": [
    0,
    15,
    16,
    17,
    18,
    19,
    20,
    21,
    22,
    23
   ]
  }
 ],
 "nodes": [
  {
   "name": "hips",
   "children": [
    1,
    11,
    13
   ],
   "translation": [
    0.0,
    0.95,
    0.0
   ]
  },
  {
   "name": "spine",
   "children": [
    2
   ],
   "translation": [
    0.0,
    0.1,
    0.0
   ]
  },
  {
   "name": "chest",
   "children": [
    3,
    5,
    8
   ],
   "translation": [
    0.0,
    0.18,
    0.0
   ]
  },
  {
   "name": "neck",
   "children": [
    4
   ],
   "translation": [
    0.0,
    0.28,
    0.0
   ]
  },
  {
   "name": "head",
   "children": [],
   "translation": [
    0.0,
    0.08,
    0.0
   ]
  },
  {
   "name": "l_shoulder",
   "children": [
    6
   ],
   "translation": [
    -0.2,
    0.22,
    0.0
   ]
  },
  {
   "name": "l_elbow",
   "children": [
    7
   ],
   "translation": [
    -0.06,
    -0.26,
    0.0
   ]
  },
  {
   "name": "l_hand",
   "children": [],
   "translation": [
    0.0,
    -0.24,
    0.0
   ]
  },
  {
   "name": "r_shoulder",
   "children": [
    9
   ],
   "translation": [
    0.2,
    0.22,
    0.0
   ]
  },
  {
   "name": "r_elbow",
   "children": [
    10
   ],
   "translation": [
    0.06,
    -0.26,
    0.0
   ]
  },
  {
   "name": "r_hand",
   "children": [],
   "translation": [
    0.0,
    -0.24,
    0.0
   ]
  },
  {
   "name": "l_hip",
   "children": [
    12
   ],
   "translation": [
    -0.09,
    -0.05,
    0.0
   ]
  },
  {
   "name": "l_knee",
   "children": [],
   "translation": [
    0.0,
    -0.45,
    0.0
   ]
  },
  {
   "name": "r_hip",
   "children": [
    14
   ],
   "translation": [
    0.09,
    -0.05,
    0.0
   ]
  },
  {
   "name": "r_knee",
   "children": [],
   "translation": [
    0.0,
    -0.45,
    0.0
   ]
  },
  {
   "mesh": 0,
   "skin": 0,
   "name": "hips_node"
  },
  {
   "mesh": 1,
   "skin": 0,
   "name": "torso_node"
  },
  {
   "mesh": 2,
   "skin": 0,
   "name": "head_node"
  },
  {
   "mesh": 3,
   "skin": 0,
   "name": "l_upper_arm_node"
  },
  {
   "mesh": 4,
   "skin": 0,
   "name": "l_forearm_node"
  },
  {
   "mesh": 5,
   "skin": 0,
   "name": "r_upper_arm_node"
  },
  {
   "mesh": 6,
   "skin": 0,
   "name": "r_forearm_node"
  },
  {
   "mesh": 7,
   "skin": 0,
   "name": "l_leg_node"
  },
  {
   "mesh": 8,
   "skin": 0,
   "name": "r_leg_node"
  }
 ],
 "meshes": [
  {
   "name": "hips",
   "primitives": [
    {
     "attributes": {
      "POSITION": 0,
      "NORMAL": 1,
      "JOINTS_0": 2,
      "WEIGHTS_0": 3
     },
     "indices": 4,
     "material": 2
    }
   ]
  },
  {
   "name": "torso",
   "primitives": [
    {
     "attributes": {
      "POSITION": 5,
      "NORMAL": 6,
      "JOINTS_0": 7,
      "WEIGHTS_0": 8
     },
     "indices": 9,
     "material": 1
    }
   ]
  },
  {
   "name": "head",
   "primitives": [
    {
     "attributes": {
      "POSITION": 10,
      "NORMAL": 11,
      "JOINTS_0": 12,
      "WEIGHTS_0": 13
     },
     "indices": 14,
     "material": 0
    }
   ]
  },
  {
   "name": "l_upper_arm",
   "primitives": [
    {
     "attributes": {
      "POSITION": 15,
      "NORMAL": 16,
      "JOINTS_0": 17,
      "WEIGHTS_0": 18
     },
     "indices": 19,
     "material": 1
    }
   ]
  },
  {
   "name": "l_forearm",
   "primitives": [
    {
     "attributes": {
      "POSITION": 20,
      "NORMAL": 21,
      "JOINTS_0": 22,
      "WEIGHTS_0": 23
     },
     "indices": 24,
     "material": 0
    }
   ]
  },
  {
   "name": "r_upper_arm",
   "primitives": [
    {
     "attributes": {
      "POSITION": 25,
      "NORMAL": 26,
      "JOINTS_0": 27,
      "WEIGHTS_0": 28
     },
     "indices": 29,
     "material": 1
    }
   ]
  },
  {
   "name": "r_forearm",
   "primitives": [
    {
     "attributes": {
      "POSITION": 30,
      "NORMAL": 31,
      "JOINTS_0": 32,
      "WEIGHTS_0": 33
     },
     "indices": 34,
     "material": 0
    }
   ]
  },
  {
   "name": "l_leg",
   "primitives": [
    {
     "attributes": {
      "POSITION": 35,
      "NORMAL": 36,
      "JOINTS_0": 37,
      "WEIGHTS_0": 38
     },
     "indices": 39,
     "material": 2
    }
   ]
  },
  {
   "name": "r_leg",
   "primitives": [
    {
     "attributes": {
      "POSITION": 40,
      "NORMAL": 41,
      "JOINTS_0": 42,
      "WEIGHTS_0": 43
     },
     "indices": 44,
     "material": 2
    }
   ]
  }
 ],
 "skins": [
  {
   "name": "mannequin_skin",
   "joints": [
    0,
    1,
    2,
    3,
    4,
    5,
    6,
    7,
    8,
    9,
    10,
    11,
    12,
    13,
    14
   ],
   "skeleton": 0,
   "inverseBindMatrices": 45
  }
 ],
 "materials": [
  {
   "name": "skin",
   "pbrMetallicRoughness": {
    "baseColorFactor": [
     0.87,
     0.72,
     0.53,
     1.0
    ]
   }
  },
  {
   "name": "shirt",
   "pbrMetallicRoughness": {
    "baseColorFactor": [
     0.2,
     0.5,
     0.8,
     1.0
    ]
   }
  },
  {
   "name": "pants",
   "pbrMetallicRoughness": {
    "baseColorFactor": [
     0.25,
     0.25,
     0.3,
     1.0
    ]
   }
  }
 ],
 "animations": [
  {
   "name": "walk",
   "samplers": [
    {
     "input": 46,
     "output": 47,
     "interpolation": "LINEAR"
    },
    {
     "input": 48,
     "output": 49,
     "interpolation": "LINEAR"
    },
    {
     "input": 50,
     "output": 51,
     "interpolation": "LINEAR"
    },
    {
     "input": 52,
     "output": 53,
     "interpolation": "LINEAR"
    },
    {
     "input": 54,
     "output": 55,
     "interpolation": "LINEAR"
    },
    {
     "input": 56,
     "output": 57,
     "interpolation": "LINEAR"
    },
    {
     "input": 58,
     "output": 59,
     "interpolation": "LINEAR"
    }
   ],
   "channels": [
    {
     "sampler": 0,
     "target": {
      "node": 0,
      "path": "translation"
     }
    },
    {
     "sampler": 1,
     "target": {
      "node": 11,
      "path": "rotation"
     }
    },
    {
     "sampler": 2,
     "target": {
      "node": 13,
      "path": "rotation"
     }
    },
    {
     "sampler": 3,
     "target": {
      "node": 12,
      "path": "rotation"
     }
    },
    {
     "sampler": 4,
     "target": {
      "node": 14,
      "path": "rotation"
     }
    },
    {
     "sampler": 5,
     "target": {
      "node": 5,
      "path": "rotation"
     }
    },
    {
     "sampler": 6,
     "target": {
      "node": 8,
      "path": "rotation"
     }
    }
   ]
  },
  {
   "name": "idle",
   "samplers": [
    {
     "input": 60,
     "output": 61,
     "interpolation": "LINEAR"
    },
    {
     "input": 62,
     "output": 63,
     "interpolation": "LINEAR"
    },
    {
     "input": 64,
     "output": 65,
     "interpolation": "LINEAR"
    }
   ],
   "channels": [
    {
     "sampler": 0,
     "target": {
      "node": 2,
      "path": "scale"
     }
    },
    {
     "sampler": 1,
     "target": {
      "node": 5,
      "path": "rotation"
     }
    },
    {
     "sampler": 2,
     "target": {
      "node": 8,
      "path": "rotation"
     }
    }
   ]
  }
 ],
 "buffers": [
  {
   "byteLength": 12576,
   "uri": "mannequin.bin"
  }
 ],
 "bufferViews": [
  {
   "buffer": 0,
   "byteOffset": 0,
   "byteLength": 288
  },
  {
   "buffer": 0,
   "byteOffset": 288,
   "byteLength": 288
  },
  {
   "buffer": 0,
   "byteOffset": 576,
   "byteLength": 96
  },
  {
   "buffer": 0,
   "byteOffset": 672,
   "byteLength": 384
  },
  {
   "buffer": 0,
   "byteOffset": 1056,
   "byteLength": 144
  },
  {
   "buffer": 0,
   "byteOffset": 1200,
   "byteLength": 288
  },
  {
   "buffer": 0,
   "byteOffset": 1488,
   "byteLength": 288
  },
  {
   "buffer": 0,
   "byteOffset": 1776,
   "byteLength": 96
  },
  {
   "buffer": 0,
   "byteOffset": 1872,
   "byteLength": 384
  },
  {
   "buffer": 0,
   "byteOffset": 2256,
   "byteLength": 144
  },
  {
   "buffer": 0,
   "byteOffset": 2400,
   "byteLength": 288
  },
  {
   "buffer": 0,
   "byteOffset": 2688,
   "byteLength": 288
  },
  {
   "buffer": 0,
   "byteOffset": 2976,
   "byteLength": 96
  },
  {
   "buffer": 0,
   "byteOffset": 3072,
   "byteLength": 384
  },
  {
   "buffer": 0,
   "byteOffset": 3456,
   "byteLength": 144
  },
  {
   "buffer": 0,
   "byteOffset": 3600,
   "byteLength": 288
  },
  {
   "buffer": 0,
   "byteOffset": 3888,
   "byteLength": 288
  },
  {
   "buffer": 0,
   "byteOffset": 4176,
   "byteLength": 96
  },
  {
   "buffer": 0,
   "byteOffset": 4272,
   "byteLength": 384
  },
  {
   "buffer": 0,
   "byteOffset": 4656,
   "byteLength": 144
  },
  {
   "buffer": 0,
   "byteOffset": 4800,
   "byteLength": 288
  },
  {
   "buffer": 0,
   "byteOffset": 5088,
   "byteLength": 288
  },
  {
   "buffer": 0,
   "byteOffset": 5376,
   "byteLength": 96
  },
  {
   "buffer": 0,
   "byteOffset": 5472,
   "byteLength": 384
  },
  {
   "buffer": 0,
   "byteOffset": 5856,
   "byteLength": 144
  },
  {
   "buffer": 0,
   "byteOffset": 6000,
   "byteLength": 288
  },
  {
   "buffer": 0,
   "byteOffset": 6288,
   "byteLength": 288
  },
  {
   "buffer": 0,
   "byteOffset": 6576,
   "byteLength": 96
  },
  {
   "buffer": 0,
   "byteOffset": 6672,
   "byteLength": 384
  },
  {
   "buffer": 0,
   "byteOffset": 7056,
   "byteLength": 144
  },
  {
   "buffer": 0,
   "byteOffset": 7200,
   "byteLength": 288
  },
  {
   "buffer": 0,
   "byteOffset": 7488,
   "byteLength": 288
  },
  {
   "buffer": 0,
   "byteOffset": 7776,
   "byteLength": 96
  },
  {
   "buffer": 0,
   "byteOffset": 7872,
   "byteLength": 384
  },
  {
   "buffer": 0,
   "byteOffset": 8256,
   "byteLength": 144
  },
  {
   "buffer": 0,
   "byteOffset": 8400,
   "byteLength": 288
  },
  {
   "buffer": 0,
   "byteOffset": 8688,
   "byteLength": 288
  },
  {
   "buffer": 0,
   "byteOffset": 8976,
   "byteLength": 96
  },
  {
   "buffer": 0,
   "byteOffset": 9072,
   "byteLength": 384
  },
  {
   "buffer": 0,
   "byteOffset": 9456,
   "byteLength": 144
  },
  {
   "buffer": 0,
   "byteOffset": 9600,
   "byteLength": 288
  },
  {
   "buffer": 0,
   "byteOffset": 9888,
   "byteLength": 288
  },
  {
   "buffer": 0,
   "byteOffset": 10176,
   "byteLength": 96
  },
  {
   "buffer": 0,
   "byteOffset": 10272,
   "byteLength": 384
  },
  {
   "buffer": 0,
   "byteOffset": 10656,
   "byteLength": 144
  },
  {
   "buffer": 0,
   "byteOffset": 10800,
   "byteLength": 960
  },
  {
   "buffer": 0,
   "byteOffset": 11760,
   "byteLength": 12
  },
  {
   "buffer": 0,
   "byteOffset": 11772,
   "byteLength": 36
  },
  {
   "buffer": 0,
   "byteOffset": 11808,
   "byteLength": 20
  },
  {
   "buffer": 0,
   "byteOffset": 11828,
   "byteLength": 80
  },
  {
   "buffer": 0,
   "byteOffset": 11908,
   "byteLength": 20
  },
  {
   "buffer": 0,
   "byteOffset": 11928,
   "byteLength": 80
  },
  {
   "buffer": 0,
   "byteOffset": 12008,
   "byteLength": 20
  },
  {
   "buffer": 0,
   "byteOffset": 12028,
   "byteLength": 80
  },
  {
   "buffer": 0,
   "byteOffset": 12108,
   "byteLength": 20
  },
  {
   "buffer": 0,
   "byteOffset": 12128,
   "byteLength": 80
  },
  {
   "buffer": 0,
   "byteOffset": 12208,
   "byteLength": 20
  },
  {
   "buffer": 0,
   "byteOffset": 12228,
   "byteLength": 80
  },
  {
   "buffer": 0,
   "byteOffset": 12308,
   "byteLength": 20
  },
  {
   "buffer": 0,
   "byteOffset": 12328,
   "byteLength": 80
  },
  {
   "buffer": 0,
   "byteOffset": 12408,
   "byteLength": 12
  },
  {
   "buffer": 0,
   "byteOffset": 12420,
   "byteLength": 36
  },
  {
   "buffer": 0,
   "byteOffset": 12456,
   "byteLength": 12
  },
  {
   "buffer": 0,
   "byteOffset": 12468,
   "byteLength": 48
  },
  {
   "buffer": 0,
   "byteOffset": 12516,
   "byteLength": 12
  },
  {
   "buffer": 0,
   "byteOffset": 12528,
   "byteLength": 48
  }
 ],
 "accessors": [
  {
   "bufferView": 0,
   "componentType": 5126,
   "count": 24,
   "type": "VEC3",
   "min": [
    -0.15,
    0.8899999999999999,
    -0.085
   ],
   "max": [
    0.15,
    1.01,
    0.085
   ]
  },
  {
   "bufferView": 1,
   "componentType": 5126,
   "count": 24,
   "type": "VEC3"
  },
  {
   "bufferView": 2,
   "componentType": 5121,
   "count": 24,
   "type": "VEC4"
  },
  {
   "bufferView": 3,
   "componentType": 5126,
   "count": 24,
   "type": "VEC4"
  },
  {
   "bufferView": 4,
   "componentType": 5125,
   "count": 36,
   "type": "SCALAR"
  },
  {
   "bufferView": 5,
   "componentType": 5126,
   "count": 24,
   "type": "VEC3",
   "min": [
    -0.17,
    1.01,
    -0.09
   ],
   "max": [
    0.17,
    1.39,
    0.09
   ]
  },
  {
   "bufferView": 6,
   "componentType": 5126,
   "count": 24,
   "type": "VEC3"
  },
  {
   "bufferView": 7,
   "componentType": 5121,
   "count": 24,
   "type": "VEC4"
  },
  {
   "bufferView": 8,
   "componentType": 5126,
   "count": 24,
   "type": "VEC4"
  },
  {
   "bufferView": 9,
   "componentType": 5125,
   "count": 36,
   "type": "SCALAR"
  },
  {
   "bufferView": 10,
   "componentType": 5126,
   "count": 24,
   "type": "VEC3",
   "min": [
    -0.11,
    1.5,
    -0.11
   ],
   "max": [
    0.11,
    1.7400000000000002,
    0.11
   ]
  },
  {
   "bufferView": 11,
   "componentType": 5126,
   "count": 24,
   "type": "VEC3"
  },
  {
   "bufferView": 12,
   "componentType": 5121,
   "count": 24,
   "type": "VEC4"
  },
  {
   "bufferView": 13,
   "componentType": 5126,
   "count": 24,
   "type": "VEC4"
  },
  {
   "bufferView": 14,
   "componentType": 5125,
   "count": 36,
   "type": "SCALAR"
  },
  {
   "bufferView": 15,
   "componentType": 5126,
   "count": 24,
   "type": "VEC3",
   "min": [
    -0.31,
    1.11,
    -0.05
   ],
   "max": [
    -0.21000000000000002,
    1.41,
    0.05
   ]
  },
  {
   "bufferView": 16,
   "componentType": 5126,
   "count": 24,
   "type": "VEC3"
  },
  {
   "bufferView": 17,
   "componentType": 5121,
   "count": 24,
   "type": "VEC4"
  },
  {
   "bufferView": 18,
   "componentType": 5126,
   "count": 24,
   "type": "VEC4"
  },
  {
   "bufferView": 19,
   "componentType": 5125,
   "count": 36,
   "type": "SCALAR"
  },
  {
   "bufferView": 20,
   "componentType": 5126,
   "count": 24,
   "type": "VEC3",
   "min": [
    -0.305,
    0.82,
    -0.045
   ],
   "max": [
    -0.21500000000000002,
    1.1,
    0.045
   ]
  },
  {
   "bufferView": 21,
   "componentType": 5126,
   "count": 24,
   "type": "VEC3"
  },
  {
   "bufferView": 22,
   "componentType": 5121,
   "count": 24,
   "type": "VEC4"
  },
  {
   "bufferView": 23,
   "componentType": 5126,
   "count": 24,
   "type": "VEC4"
  },
  {
   "bufferView": 24,
   "componentType": 5125,
   "count": 36,
   "type": "SCALAR"
  },
  {
   "bufferView": 25,
   "componentType": 5126,
   "count": 24,
   "type": "VEC3",
   "min": [
    0.21000000000000002,
    1.11,
    -0.05
   ],
   "max": [
    0.31,
    1.41,
    0.05
   ]
  },
  {
   "bufferView": 26,
   "componentType": 5126,
   "count": 24,
   "type": "VEC3"
  },
  {
   "bufferView": 27,
   "componentType": 5121,
   "count": 24,
   "type": "VEC4"
  },
  {
   "bufferView": 28,
   "componentType": 5126,
   "count": 24,
   "type": "VEC4"
  },
  {
   "bufferView": 29,
   "componentType": 5125,
   "count": 36,
   "type": "SCALAR"
  },
  {
   "bufferView": 30,
   "componentType": 5126,
   "count": 24,
   "type": "VEC3",
   "min": [
    0.21500000000000002,
    0.82,
    -0.045
   ],
   "max": [
    0.305,
    1.1,
    0.045
   ]
  },
  {
   "bufferView": 31,
   "componentType": 5126,
   "count": 24,
   "type": "VEC3"
  },
  {
   "bufferView": 32,
   "componentType": 5121,
   "count": 24,
   "type": "VEC4"
  },
  {
   "bufferView": 33,
   "componentType": 5126,
   "count": 24,
   "type": "VEC4"
  },
  {
   "bufferView": 34,
   "componentType": 5125,
   "count": 36,
   "type": "SCALAR"
  },
  {
   "bufferView": 35,
   "componentType": 5126,
   "count": 24,
   "type": "VEC3",
   "min": [
    -0.155,
    0.0,
    -0.065
   ],
   "max": [
    -0.024999999999999994,
    0.91,
    0.065
   ]
  },
  {
   "bufferView": 36,
   "componentType": 5126,
   "count": 24,
   "type": "VEC3"
  },
  {
   "bufferView": 37,
   "componentType": 5121,
   "count": 24,
   "type": "VEC4"
  },
  {
   "bufferView": 38,
   "componentType": 5126,
   "count": 24,
   "type": "VEC4"
  },
  {
   "bufferView": 39,
   "componentType": 5125,
   "count": 36,
   "type": "SCALAR"
  },
  {
   "bufferView": 40,
   "componentType": 5126,
   "count": 24,
   "type": "VEC3",
   "min": [
    0.024999999999999994,
    0.0,
    -0.065
   ],
   "max": [
    0.155,
    0.91,
    0.065
   ]
  },
  {
   "bufferView": 41,
   "componentType": 5126,
   "count": 24,
   "type": "VEC3"
  },
  {
   "bufferView": 42,
   "componentType": 5121,
   "count": 24,
   "type": "VEC4"
  },
  {
   "bufferView": 43,
   "componentType": 5126,
   "count": 24,
   "type": "VEC4"
  },
  {
   "bufferView": 44,
   "componentType": 5125,
   "count": 36,
   "type": "SCALAR"
  },
  {
   "bufferView": 45,
   "componentType": 5126,
   "count": 15,
   "type": "MAT4"
  },
  {
   "bufferView": 46,
   "componentType": 5126,
   "count": 3,
   "type": "SCALAR"
  },
  {
   "bufferView": 47,
   "componentType": 5126,
   "count": 3,
   "type": "VEC3"
  },
  {
   "bufferView": 48,
   "componentType": 5126,
   "count": 5,
   "type": "SCALAR"
  },
  {
   "bufferView": 49,
   "componentType": 5126,
   "count": 5,
   "type": "VEC4"
  },
  {
   "bufferView": 50,
   "componentType": 5126,
   "count": 5,
   "type": "SCALAR"
  },
  {
   "bufferView": 51,
   "componentType": 5126,
   "count": 5,
   "type": "VEC4"
  },
  {
   "bufferView": 52,
   "componentType": 5126,
   "count": 5,
   "type": "SCALAR"
  },
  {
   "bufferView": 53,
   "componentType": 5126,
   "count": 5,
   "type": "VEC4"
  },
  {
   "bufferView": 54,
   "componentType": 5126,
   "count": 5,
   "type": "SCALAR"
  },
  {
   "bufferView": 55,
   "componentType": 5126,
   "count": 5,
   "type": "VEC4"
  },
  {
   "bufferView": 56,
   "componentType": 5126,
   "count": 5,
   "type": "SCALAR"
  },
  {
   "bufferView": 57,
   "componentType": 5126,
   "count": 5,
   "type": "VEC4"
  },
  {
   "bufferView": 58,
   "componentType": 5126,
   "count": 5,
   "type": "SCALAR"
  },
  {
   "bufferView": 59,
   "componentType": 5126,
   "count": 5,
   "type": "VEC4"
  },
  {
   "bufferView": 60,
   "componentType": 5126,
   "count": 3,
   "type": "SCALAR"
  },
  {
   "bufferView": 61,
   "componentType": 5126,
   "count": 3,
   "type": "VEC3"
  },
  {
   "bufferView": 62,
   "componentType": 5126,
   "count": 3,
   "type": "SCALAR"
  },
  {
   "bufferView": 63,
   "componentType": 5126,
   "count": 3,
   "type": "VEC4"
  },
  {
   "bufferView": 64,
   "componentType": 5126,
   "count": 3,
   "type": "SCALAR"
  },
  {
   "bufferView": 65,
   "componentType": 5126,
   "count": 3,
   "type": "VEC4"
  }
 ]
}